<svg xmlns="http://www.w3.org/2000/svg" xmlns:xlink="http://www.w3.org/1999/xlink" width="1080" zoomAndPan="magnify" viewBox="0 0 810 809.999993" height="1080" preserveAspectRatio="xMidYMid meet" version="1.0"><defs><g/></defs><g fill="#ffffff" fill-opacity="1"><g transform="translate(88.258788, 560.678359)"><g/></g></g><g fill="#ffffff" fill-opacity="1"><g transform="translate(82.298281, 547.978001)"><g/></g></g><g fill="#ffffff" fill-opacity="1"><g transform="translate(76.847788, 535.050617)"><g/></g></g><g fill="#ffffff" fill-opacity="1"><g transform="translate(71.915911, 521.916605)"><g/></g></g><g fill="#ffffff" fill-opacity="1"><g transform="translate(67.510514, 508.596752)"><g/></g></g><g fill="#ffffff" fill-opacity="1"><g transform="translate(63.638474, 495.112202)"><g/></g></g><g fill="#ffffff" fill-opacity="1"><g transform="translate(60.306019, 481.48427)"><g/></g></g><g fill="#ffffff" fill-opacity="1"><g transform="translate(57.518376, 467.734563)"><g/></g></g><g fill="#ffffff" fill-opacity="1"><g transform="translate(55.279983, 453.884812)"><g/></g></g><g fill="#ffffff" fill-opacity="1"><g transform="translate(53.594386, 439.95697)"><g/></g></g><g fill="#ffffff" fill-opacity="1"><g transform="translate(52.464218, 425.973112)"><g/></g></g><g fill="#ffffff" fill-opacity="1"><g transform="translate(51.891302, 411.955355)"><g/></g></g><g fill="#ffffff" fill-opacity="1"><g transform="translate(51.876553, 397.925861)"><g/></g></g><g fill="#ffffff" fill-opacity="1"><g transform="translate(52.419959, 383.906974)"><g/></g></g><g fill="#ffffff" fill-opacity="1"><g transform="translate(53.520697, 369.920757)"><g/></g></g><g fill="#ffffff" fill-opacity="1"><g transform="translate(55.176984, 355.989399)"><g/></g></g><g fill="#ffffff" fill-opacity="1"><g transform="translate(57.386233, 342.134995)"><g/></g></g><g fill="#ffffff" fill-opacity="1"><g transform="translate(60.144897, 328.379418)"><g/></g></g><g fill="#ffffff" fill-opacity="1"><g transform="translate(63.448693, 314.744515)"><g/></g></g><g fill="#ffffff" fill-opacity="1"><g transform="translate(67.292329, 301.251842)"><g/></g></g><g fill="#ffffff" fill-opacity="1"><g transform="translate(71.669708, 287.922785)"><g/></g></g><g fill="#ffffff" fill-opacity="1"><g transform="translate(76.573919, 274.778379)"><g/></g></g><g fill="#ffffff" fill-opacity="1"><g transform="translate(81.997198, 261.839553)"><g/></g></g><g fill="#ffffff" fill-opacity="1"><g transform="translate(87.930967, 249.126736)"><g/></g></g><g fill="#ffffff" fill-opacity="1"><g transform="translate(94.365779, 236.660039)"><g/></g></g><g fill="#ffffff" fill-opacity="1"><g transform="translate(101.291531, 224.459203)"><g/></g></g><g fill="#ffffff" fill-opacity="1"><g transform="translate(108.697193, 212.543595)"><g/></g></g><g fill="#ffffff" fill-opacity="1"><g transform="translate(116.571059, 200.93204)"><g/></g></g><g fill="#ffffff" fill-opacity="1"><g transform="translate(124.900654, 189.64296)"><g/></g></g><g fill="#ffffff" fill-opacity="1"><g transform="translate(133.672787, 178.694202)"><g/></g></g><g fill="#ffffff" fill-opacity="1"><g transform="translate(142.873577, 168.103095)"><g/></g></g><g fill="#ffffff" fill-opacity="1"><g transform="translate(152.488447, 157.886444)"><g/></g></g><g fill="#ffffff" fill-opacity="1"><g transform="translate(162.502166, 148.060409)"><g/></g></g><g fill="#ffffff" fill-opacity="1"><g transform="translate(172.898904, 138.640549)"><g/></g></g><g fill="#ffffff" fill-opacity="1"><g transform="translate(183.662177, 129.641782)"><g/></g></g><g fill="#ffffff" fill-opacity="1"><g transform="translate(194.774937, 121.07835)"><g/></g></g><g fill="#ffffff" fill-opacity="1"><g transform="translate(206.219592, 112.963827)"><g/></g></g><g fill="#ffffff" fill-opacity="1"><g transform="translate(217.978032, 105.311048)"><g/></g></g><g fill="#ffffff" fill-opacity="1"><g transform="translate(230.031613, 98.132143)"><g/></g></g><g fill="#ffffff" fill-opacity="1"><g transform="translate(242.361287, 91.438472)"><g/></g></g><g fill="#ffffff" fill-opacity="1"><g transform="translate(254.947477, 85.240636)"><g/></g></g><g fill="#ffffff" fill-opacity="1"><g transform="translate(267.770312, 79.548456)"><g/></g></g><g fill="#ffffff" fill-opacity="1"><g transform="translate(280.809418, 74.37093)"><g/></g></g><g fill="#ffffff" fill-opacity="1"><g transform="translate(294.044224, 69.716267)"><g/></g></g><g fill="#ffffff" fill-opacity="1"><g transform="translate(307.453739, 65.591841)"><g/></g></g><g fill="#ffffff" fill-opacity="1"><g transform="translate(321.016713, 62.004174)"><g/></g></g><g fill="#ffffff" fill-opacity="1"><g transform="translate(334.711667, 58.958951)"><g/></g></g><g fill="#ffffff" fill-opacity="1"><g transform="translate(348.516979, 56.460994)"><g/></g></g><g fill="#ffffff" fill-opacity="1"><g transform="translate(362.410722, 54.514257)"><g/></g></g><g fill="#ffffff" fill-opacity="1"><g transform="translate(376.370901, 53.121827)"><g/></g></g><g fill="#ffffff" fill-opacity="1"><g transform="translate(390.375445, 52.285904)"><g/></g></g><g fill="#ffffff" fill-opacity="1"><g transform="translate(403.823643, 51.579286)"><g><path d="M 2.734375 0.140625 L 4.734375 -38.21875 L 37.1875 -36.53125 L 36.6875 -26.890625 L 16.9375 -27.921875 L 16.6875 -23.234375 L 34.625 -22.296875 L 34.125 -12.65625 L 16.1875 -13.59375 L 15.9375 -8.828125 L 36.1875 -7.765625 L 35.6875 1.859375 Z M 2.734375 0.140625 "/></g></g></g><g fill="#ffffff" fill-opacity="1"><g transform="translate(439.566718, 53.20799)"><g><path d="M 16.140625 -17.15625 L 6.65625 -37.828125 L 21.25 -35.484375 L 25.34375 -25.671875 L 32.28125 -33.703125 L 47.0625 -31.3125 L 31.875 -15.234375 L 42.078125 6.78125 L 27.0625 4.359375 L 22.25 -6.46875 L 14.390625 2.328125 L -0.28125 -0.046875 Z M 16.140625 -17.15625 "/></g></g></g><g fill="#ffffff" fill-opacity="1"><g transform="translate(479.368227, 59.643151)"><g><path d="M 30.171875 -31.5625 C 35.003906 -30.238281 38.425781 -28.0625 40.4375 -25.03125 C 42.445312 -22 42.875 -18.367188 41.71875 -14.140625 C 40.488281 -9.671875 38.210938 -6.550781 34.890625 -4.78125 C 31.578125 -3.019531 27.503906 -2.800781 22.671875 -4.125 L 17.546875 -5.53125 L 14.90625 4.078125 L 2.640625 0.71875 L 12.78125 -36.328125 Z M 24.578125 -13.609375 C 25.921875 -13.242188 27.054688 -13.359375 27.984375 -13.953125 C 28.921875 -14.546875 29.585938 -15.550781 29.984375 -16.96875 C 30.347656 -18.332031 30.273438 -19.492188 29.765625 -20.453125 C 29.253906 -21.410156 28.328125 -22.070312 26.984375 -22.4375 L 22.5 -23.671875 L 20.09375 -14.84375 Z M 24.578125 -13.609375 "/></g></g></g><g fill="#ffffff" fill-opacity="1"><g transform="translate(513.889349, 69.149913)"><g><path d="M 2.5625 0.96875 L 16.125 -34.96875 L 28.015625 -30.484375 L 18.1875 -4.4375 L 33.15625 1.21875 L 29.421875 11.109375 Z M 2.5625 0.96875 "/></g></g></g><g fill="#ffffff" fill-opacity="1"><g transform="translate(542.177736, 79.402443)"><g><path d="M 37.125 -25.3125 C 40.726562 -23.519531 43.582031 -21.132812 45.6875 -18.15625 C 47.800781 -15.1875 48.988281 -11.941406 49.25 -8.421875 C 49.507812 -4.910156 48.789062 -1.453125 47.09375 1.953125 C 45.382812 5.378906 43.035156 8.0625 40.046875 10 C 37.066406 11.9375 33.75 12.960938 30.09375 13.078125 C 26.445312 13.203125 22.820312 12.367188 19.21875 10.578125 C 15.625 8.773438 12.773438 6.378906 10.671875 3.390625 C 8.578125 0.410156 7.40625 -2.851562 7.15625 -6.40625 C 6.90625 -9.957031 7.632812 -13.445312 9.34375 -16.875 C 11.0625 -20.3125 13.40625 -22.984375 16.375 -24.890625 C 19.351562 -26.796875 22.65625 -27.789062 26.28125 -27.875 C 29.914062 -27.96875 33.53125 -27.113281 37.125 -25.3125 Z M 32.546875 -15.78125 C 31.242188 -16.4375 29.84375 -16.675781 28.34375 -16.5 C 26.84375 -16.332031 25.441406 -15.773438 24.140625 -14.828125 C 22.847656 -13.890625 21.800781 -12.617188 21 -11.015625 C 20.195312 -9.421875 19.804688 -7.8125 19.828125 -6.1875 C 19.847656 -4.5625 20.234375 -3.09375 20.984375 -1.78125 C 21.742188 -0.46875 22.773438 0.515625 24.078125 1.171875 C 25.390625 1.828125 26.769531 2.054688 28.21875 1.859375 C 29.664062 1.660156 31.023438 1.0625 32.296875 0.0625 C 33.566406 -0.925781 34.601562 -2.21875 35.40625 -3.8125 C 36.207031 -5.414062 36.617188 -7.019531 36.640625 -8.625 C 36.660156 -10.226562 36.3125 -11.65625 35.59375 -12.90625 C 34.875 -14.164062 33.859375 -15.125 32.546875 -15.78125 Z M 32.546875 -15.78125 "/></g></g></g><g fill="#ffffff" fill-opacity="1"><g transform="translate(579.499265, 98.026913)"><g><path d="M 32.875 21.328125 L 20.828125 13.515625 L 22.390625 2.640625 L 18.390625 0.046875 L 12.96875 8.40625 L 2.296875 1.484375 L 23.1875 -30.734375 L 38.765625 -20.625 C 43.160156 -17.78125 45.90625 -14.578125 47 -11.015625 C 48.09375 -7.460938 47.445312 -3.847656 45.0625 -0.171875 C 43.550781 2.148438 41.796875 3.894531 39.796875 5.0625 C 37.796875 6.226562 35.640625 6.78125 33.328125 6.71875 Z M 28.625 -15.734375 L 23.640625 -8.0625 L 28.546875 -4.875 C 29.710938 -4.113281 30.832031 -3.875 31.90625 -4.15625 C 32.988281 -4.4375 33.929688 -5.191406 34.734375 -6.421875 C 35.503906 -7.609375 35.785156 -8.734375 35.578125 -9.796875 C 35.378906 -10.867188 34.695312 -11.785156 33.53125 -12.546875 Z M 28.625 -15.734375 "/></g></g></g><g fill="#ffffff" fill-opacity="1"><g transform="translate(611.203073, 118.520368)"><g><path d="M 2.125 1.71875 L 26.265625 -28.15625 L 51.546875 -7.734375 L 45.484375 -0.234375 L 30.09375 -12.65625 L 27.140625 -9 L 41.125 2.28125 L 35.046875 9.796875 L 21.0625 -1.484375 L 18.078125 2.21875 L 33.859375 14.953125 L 27.796875 22.453125 Z M 2.125 1.71875 "/></g></g></g><g fill="#ffffff" fill-opacity="1"><g transform="translate(639.321746, 141.700313)"><g/></g></g><g fill="#ffffff" fill-opacity="1"><g transform="translate(649.539507, 150.012237)"><g><path d="M 1.828125 2.03125 L 30.40625 -23.625 L 39.40625 -13.578125 L 30.875 6.90625 L 52.109375 0.5625 L 61.109375 10.609375 L 32.53125 36.265625 L 25.109375 27.984375 L 40.78125 13.921875 L 22.703125 19.734375 L 17.1875 13.59375 L 24.921875 -3.75 L 9.25 10.3125 Z M 1.828125 2.03125 "/></g></g></g><g fill="#ffffff" fill-opacity="1"><g transform="translate(682.186836, 186.732803)"><g><path d="M 47.109375 0.40625 L 54.359375 10.796875 L 24.78125 14.640625 L 14.984375 21.484375 L 7.71875 11.0625 L 17.296875 4.390625 L 31.1875 -22.421875 L 38.421875 -12.03125 L 30.734375 2.765625 Z M 47.109375 0.40625 "/></g></g></g><g fill="#ffffff" fill-opacity="1"><g transform="translate(703.597358, 218.112282)"><g/></g></g><g fill="#ffffff" fill-opacity="1"><g transform="translate(710.861651, 229.458591)"><g><path d="M 43.640625 1.296875 C 45.890625 5.773438 46.5625 9.773438 45.65625 13.296875 C 44.75 16.816406 42.335938 19.5625 38.421875 21.53125 C 34.273438 23.613281 30.4375 24.007812 26.90625 22.71875 C 23.375 21.425781 20.484375 18.539062 18.234375 14.0625 L 15.84375 9.328125 L 6.9375 13.8125 L 1.234375 2.4375 L 35.546875 -14.8125 Z M 26.5625 9.15625 C 27.1875 10.394531 28.03125 11.160156 29.09375 11.453125 C 30.15625 11.753906 31.34375 11.578125 32.65625 10.921875 C 33.925781 10.285156 34.742188 9.457031 35.109375 8.4375 C 35.484375 7.414062 35.359375 6.285156 34.734375 5.046875 L 32.640625 0.890625 L 24.46875 5 Z M 26.5625 9.15625 "/></g></g></g><g fill="#ffffff" fill-opacity="1"><g transform="translate(726.999966, 261.223702)"><g><path d="M 13.875 36.65625 L 8.78125 23.21875 L 16.484375 15.375 L 14.796875 10.921875 L 5.46875 14.453125 L 0.96875 2.5625 L 36.890625 -11.03125 L 43.46875 6.34375 C 45.320312 11.226562 45.632812 15.425781 44.40625 18.9375 C 43.175781 22.445312 40.507812 24.976562 36.40625 26.53125 C 33.8125 27.519531 31.363281 27.890625 29.0625 27.640625 C 26.757812 27.398438 24.695312 26.570312 22.875 25.15625 Z M 32.375 4.265625 L 23.828125 7.5 L 25.90625 12.984375 C 26.394531 14.273438 27.148438 15.128906 28.171875 15.546875 C 29.203125 15.960938 30.40625 15.910156 31.78125 15.390625 C 33.113281 14.890625 34.015625 14.144531 34.484375 13.15625 C 34.953125 12.175781 34.941406 11.039062 34.453125 9.75 Z M 32.375 4.265625 "/></g></g></g><g fill="#ffffff" fill-opacity="1"><g transform="translate(740.533511, 296.320073)"><g><path d="M 43.421875 11.5625 C 44.421875 15.457031 44.484375 19.175781 43.609375 22.71875 C 42.734375 26.257812 41.050781 29.273438 38.5625 31.765625 C 36.070312 34.265625 32.988281 35.984375 29.3125 36.921875 C 25.59375 37.867188 22.019531 37.847656 18.59375 36.859375 C 15.175781 35.867188 12.234375 34.03125 9.765625 31.34375 C 7.296875 28.65625 5.5625 25.363281 4.5625 21.46875 C 3.570312 17.570312 3.519531 13.851562 4.40625 10.3125 C 5.289062 6.769531 6.992188 3.738281 9.515625 1.21875 C 12.046875 -1.289062 15.171875 -3.019531 18.890625 -3.96875 C 22.609375 -4.914062 26.160156 -4.882812 29.546875 -3.875 C 32.929688 -2.863281 35.84375 -1.015625 38.28125 1.671875 C 40.71875 4.367188 42.429688 7.664062 43.421875 11.5625 Z M 33.21875 14.3125 C 32.851562 12.90625 32.117188 11.691406 31.015625 10.671875 C 29.910156 9.648438 28.578125 8.953125 27.015625 8.578125 C 25.453125 8.210938 23.800781 8.25 22.0625 8.6875 C 20.320312 9.132812 18.847656 9.894531 17.640625 10.96875 C 16.429688 12.050781 15.570312 13.304688 15.0625 14.734375 C 14.5625 16.171875 14.492188 17.59375 14.859375 19 C 15.222656 20.425781 15.953125 21.617188 17.046875 22.578125 C 18.140625 23.546875 19.472656 24.1875 21.046875 24.5 C 22.628906 24.8125 24.289062 24.742188 26.03125 24.296875 C 27.769531 23.859375 29.253906 23.125 30.484375 22.09375 C 31.710938 21.0625 32.566406 19.863281 33.046875 18.5 C 33.523438 17.132812 33.582031 15.738281 33.21875 14.3125 Z M 33.21875 14.3125 "/></g></g></g><g fill="#ffffff" fill-opacity="1"><g transform="translate(750.728594, 336.884339)"><g><path d="M 0.390625 2.703125 L 38.40625 -2.8125 L 42.84375 27.78125 L 33.296875 29.171875 L 30.6875 11.171875 L 24.125 12.125 L 26.5625 28.984375 L 17.03125 30.359375 L 14.59375 13.5 L 2.21875 15.296875 Z M 0.390625 2.703125 "/></g></g></g><g fill="#ffffff" fill-opacity="1"><g transform="translate(755.255857, 369.780719)"><g><path d="M 0.203125 2.734375 L 38.5 -0.0625 L 39.421875 12.609375 L 1.125 15.40625 Z M 0.203125 2.734375 "/></g></g></g><g fill="#ffffff" fill-opacity="1"><g transform="translate(756.76021, 386.630558)"><g><path d="M 0.015625 2.734375 L 38.421875 2.515625 L 38.484375 15.234375 L 10.65625 15.390625 L 10.75 31.390625 L 0.171875 31.453125 Z M 0.015625 2.734375 "/></g></g></g><g fill="#ffffff" fill-opacity="1"><g transform="translate(757.151048, 416.849612)"><g><path d="M -0.234375 2.71875 L 38.015625 6.109375 L 35.140625 38.484375 L 25.546875 37.625 L 27.296875 17.921875 L 22.609375 17.515625 L 21.015625 35.421875 L 11.390625 34.5625 L 12.984375 16.65625 L 8.25 16.234375 L 6.453125 36.4375 L -3.15625 35.59375 Z M -0.234375 2.71875 "/></g></g></g><g fill="#ffffff" fill-opacity="1"><g transform="translate(753.579776, 453.113788)"><g/></g></g><g fill="#ffffff" fill-opacity="1"><g transform="translate(751.371902, 466.968447)"><g/></g></g><g fill="#ffffff" fill-opacity="1"><g transform="translate(748.614644, 480.724275)"><g/></g></g><g fill="#ffffff" fill-opacity="1"><g transform="translate(745.312344, 494.359544)"><g/></g></g><g fill="#ffffff" fill-opacity="1"><g transform="translate(741.470094, 507.85263)"><g/></g></g><g fill="#ffffff" fill-opacity="1"><g transform="translate(737.094009, 521.182121)"><g/></g></g><g fill="#ffffff" fill-opacity="1"><g transform="translate(732.191229, 534.327018)"><g/></g></g><g fill="#ffffff" fill-opacity="1"><g transform="translate(726.769236, 547.266416)"><g/></g></g></svg>