<svg xmlns="http://www.w3.org/2000/svg" xmlns:xlink="http://www.w3.org/1999/xlink" width="1080" zoomAndPan="magnify" viewBox="0 0 810 809.999993" height="1080" preserveAspectRatio="xMidYMid meet" version="1.0"><defs><clipPath id="dca411e13d"><path d="M 0 0 L 810 0 L 810 781.5 L 0 781.5 Z M 0 0 " clip-rule="nonzero"/></clipPath><clipPath id="dde29f57b1"><path d="M 0 489 L 810 489 L 810 781.5 L 0 781.5 Z M 0 489 " clip-rule="nonzero"/></clipPath></defs><g clip-path="url(#dca411e13d)"><path fill="#000000" d="M 766.160156 534.648438 C 768.332031 538.191406 767.929688 541.652344 764.75 544.390625 C 761.40625 547.285156 757.746094 549.863281 754 552.238281 C 745.464844 557.550781 736.246094 561.375 726.90625 565.039062 C 703.597656 574.175781 679.523438 580.816406 655.167969 586.570312 C 627.589844 593.050781 599.730469 598.042969 571.628906 601.949219 C 553.191406 604.523438 534.710938 606.777344 516.195312 608.589844 C 491.273438 611.042969 466.3125 612.535156 441.351562 613.78125 C 402.988281 615.714844 364.621094 615.269531 326.253906 614.464844 C 305.683594 614.0625 285.109375 612.777344 264.617188 611.164062 C 237.203125 608.992188 209.867188 605.894531 182.691406 601.425781 C 148.714844 595.828125 114.9375 589.109375 82.128906 578.402344 C 70.53125 574.617188 59.179688 570.027344 47.785156 565.683594 C 44.40625 564.394531 41.144531 562.824219 38.003906 561.054688 C 35.628906 559.683594 33.253906 558.074219 31.363281 556.0625 C 28.300781 552.839844 27.175781 550.144531 28.101562 547.851562 C 26.570312 544.710938 27.09375 541.007812 28.746094 537.707031 C 28.664062 537.707031 28.625 537.707031 28.542969 537.707031 C 26.972656 537.585938 25.605469 535.171875 26.449219 533.921875 C 27.65625 532.070312 28.824219 530.058594 30.476562 528.691406 C 34.984375 524.988281 39.535156 521.285156 44.445312 518.183594 C 90.945312 488.722656 137.441406 459.339844 184.0625 430.074219 C 239.859375 395.058594 295.699219 360.160156 351.535156 325.179688 C 354.113281 323.570312 356.648438 321.878906 359.105469 320.308594 C 359.667969 314.753906 360.273438 309.523438 360.714844 304.289062 C 361.078125 300.226562 363.171875 297.609375 366.792969 296.078125 C 370.335938 294.550781 373.921875 293.058594 377.34375 291.570312 C 378.710938 288.390625 377.988281 285.332031 377.988281 282.3125 C 377.503906 198.066406 376.980469 113.78125 376.578125 29.535156 C 376.539062 22.050781 377.34375 14.5625 377.824219 7.074219 C 377.90625 5.707031 378.1875 4.296875 378.710938 3.050781 C 379.316406 1.398438 380.601562 0.113281 382.414062 0.113281 C 383.945312 0.113281 385.191406 0.917969 385.878906 2.246094 L 405.726562 2.246094 C 406.488281 1.039062 407.617188 0.152344 409.105469 0.113281 C 410.878906 0.0703125 412.367188 1.199219 412.851562 2.929688 C 413.535156 5.304688 414.136719 7.761719 414.300781 10.253906 C 414.621094 15.808594 414.824219 21.363281 414.824219 26.917969 C 414.660156 96.996094 414.542969 167.074219 414.257812 237.152344 C 414.21875 252.445312 413.695312 267.742188 413.375 283.039062 C 413.332031 285.492188 413.375 287.988281 413.375 290.683594 C 415.667969 291.570312 417.722656 292.296875 419.734375 293.140625 C 421.789062 293.984375 423.882812 294.832031 425.734375 296 C 429.234375 298.171875 431.207031 301.230469 431.25 305.617188 C 431.289062 310.570312 431.167969 315.640625 432.617188 320.671875 C 434.710938 322.042969 436.765625 323.449219 438.855469 324.777344 C 540.832031 388.695312 642.765625 452.65625 744.742188 516.535156 C 750.617188 520.238281 756.578125 523.859375 761.449219 528.933594 C 763.140625 530.703125 764.871094 532.554688 766.160156 534.648438 Z M 266.511719 743.429688 C 261.761719 752.207031 258.339844 760.78125 256.527344 769.996094 C 256.246094 771.324219 256.285156 772.734375 256.246094 774.101562 C 256.203125 774.625 256.164062 775.308594 256.445312 775.710938 C 256.890625 776.316406 257.492188 777.121094 258.136719 777.203125 C 258.78125 777.28125 259.988281 776.800781 260.191406 776.277344 C 264.09375 766.292969 267.757812 756.230469 268.523438 745.402344 C 268.523438 745.082031 267.800781 744.679688 266.511719 743.429688 Z M 809.71875 666.753906 C 809.476562 665.707031 809.195312 664.578125 808.632812 663.695312 C 805.449219 658.460938 791.761719 645.582031 785.441406 641.835938 C 785.160156 643.125 784.796875 643.851562 785 644.132812 C 790.996094 652.464844 796.917969 660.875 804.808594 667.636719 C 805.410156 668.160156 806.214844 668.683594 806.941406 668.804688 C 807.664062 668.925781 808.511719 668.605469 809.15625 668.203125 C 809.515625 667.960938 809.839844 667.15625 809.71875 666.753906 Z M 30.636719 685.027344 C 24.960938 691.585938 21.09375 699.195312 17.996094 707.246094 C 17.792969 707.769531 17.59375 708.332031 17.632812 708.855469 C 17.753906 709.621094 17.957031 710.90625 18.359375 711.027344 C 19.242188 711.269531 20.773438 711.269531 21.214844 710.707031 C 25.847656 704.832031 29.792969 698.511719 32.691406 691.585938 C 33.453125 689.816406 33.855469 687.882812 34.21875 686.03125 C 34.339844 685.347656 33.816406 684.542969 33.453125 683.335938 C 32.328125 683.980469 31.242188 684.300781 30.636719 685.027344 Z M 543.007812 750.03125 C 542.644531 748.625 541.917969 747.296875 540.347656 747.214844 C 538.617188 747.132812 538.054688 748.664062 538.015625 750.03125 C 537.894531 753.894531 537.972656 757.761719 537.972656 761.664062 C 537.972656 764.722656 537.894531 767.78125 538.015625 770.800781 C 538.054688 771.890625 538.296875 773.015625 538.820312 773.941406 C 539.140625 774.546875 540.027344 775.1875 540.710938 775.269531 C 541.4375 775.351562 542.5625 775.027344 542.886719 774.464844 C 543.570312 773.335938 544.253906 771.96875 544.253906 770.679688 C 544.335938 765.410156 544.253906 760.136719 544.050781 754.863281 C 544.011719 753.253906 543.410156 751.640625 543.007812 750.03125 Z M 20.855469 675.96875 C 20.976562 675.285156 20.453125 674.519531 20.210938 673.796875 C 19.484375 673.878906 18.839844 673.757812 18.4375 673.996094 C 10.992188 679.148438 6.121094 686.675781 0.765625 693.722656 C -0.0390625 694.765625 0.5625 697.140625 1.652344 697.34375 C 2.617188 697.503906 4.066406 697.425781 4.671875 696.820312 C 10.105469 691.265625 15.539062 685.710938 19.605469 678.988281 C 20.128906 678.101562 20.652344 677.058594 20.855469 675.96875 Z M 563.09375 746.933594 C 562.492188 747.578125 562.210938 747.738281 562.167969 747.9375 C 560.679688 755.667969 562.210938 763.234375 563.699219 770.761719 C 563.898438 771.769531 564.585938 772.8125 565.308594 773.578125 C 565.792969 774.101562 566.757812 774.585938 567.402344 774.464844 C 568.085938 774.34375 568.730469 773.539062 569.175781 772.894531 C 569.457031 772.492188 569.535156 771.847656 569.496094 771.324219 C 569.375 763.273438 567.804688 755.507812 564.746094 748.058594 C 564.625 747.699219 563.941406 747.496094 563.09375 746.933594 Z M 282.492188 752.808594 C 279.875 759.007812 277.5 773.539062 278.105469 778.652344 C 278.265625 780.101562 279.03125 781.46875 280.601562 781.347656 C 281.445312 781.265625 282.773438 780.300781 282.976562 779.535156 C 284.949219 771.527344 286.679688 763.4375 284.464844 755.183594 C 284.304688 754.539062 283.582031 754.058594 282.492188 752.808594 Z M 788.503906 671.863281 C 784.558594 666.875 780.652344 661.882812 776.664062 656.929688 C 775.820312 655.882812 774.8125 656.125 774.007812 657.214844 C 776.828125 666.429688 781.65625 674.238281 787.65625 679.433594 C 787.859375 679.59375 788.097656 679.753906 788.339844 679.914062 C 789.46875 680.71875 791.5625 680.597656 792.042969 679.472656 C 792.40625 678.625 792.40625 677.296875 791.964844 676.492188 C 790.996094 674.84375 789.667969 673.394531 788.503906 671.863281 Z M 788.503906 671.863281 " fill-opacity="1" fill-rule="nonzero"/></g><path fill="#636466" d="M 759.636719 537.789062 C 757.746094 539.4375 756.859375 540.445312 755.8125 541.089844 C 751.988281 539.4375 748.003906 537.949219 744.015625 536.660156 C 744.097656 534.527344 742.488281 533.199219 740.835938 532.152344 C 734.515625 528.128906 728.234375 524.101562 721.109375 521.40625 C 696.148438 511.945312 670.707031 504.097656 644.617188 498.421875 C 627.832031 494.757812 610.882812 491.660156 593.933594 488.679688 C 581.894531 486.589844 569.777344 484.898438 557.660156 483.488281 C 544.414062 481.917969 531.128906 480.710938 517.84375 479.707031 C 501.78125 478.457031 485.679688 477.570312 469.574219 476.566406 C 464.019531 476.242188 458.464844 476.003906 452.90625 475.921875 C 433.179688 475.761719 413.414062 475.316406 393.6875 475.679688 C 376.175781 476.003906 358.703125 477.128906 341.191406 478.214844 C 325.367188 479.222656 309.546875 480.308594 293.847656 482.078125 C 275.085938 484.214844 256.40625 487.113281 237.726562 489.808594 C 214.617188 493.148438 191.792969 497.816406 169.003906 502.6875 C 139.132812 509.089844 109.785156 517.460938 80.316406 525.511719 C 64.210938 529.9375 48.875 536.417969 33.65625 543.222656 C 30.636719 544.589844 28.824219 546.078125 28.140625 547.769531 C 26.570312 544.628906 27.132812 540.886719 28.785156 537.585938 C 30.074219 537.667969 31.441406 537.585938 32.648438 537.183594 C 38.246094 535.414062 43.480469 532.917969 48.429688 529.777344 C 61.554688 521.40625 74.71875 513.113281 87.882812 504.78125 C 178.828125 447.34375 269.488281 389.460938 359.710938 330.855469 C 361.359375 329.808594 362.96875 328.683594 364.582031 327.675781 C 366.957031 326.1875 368.324219 324.132812 368.847656 321.679688 C 370.257812 321.355469 371.667969 321.117188 373.117188 320.953125 C 372.996094 321.234375 372.914062 321.519531 372.914062 321.878906 C 372.875 323.25 374.363281 324.375 376.617188 324.457031 C 379.113281 324.535156 381.609375 324.375 384.105469 324.457031 C 394.371094 324.820312 404.636719 325.421875 414.902344 325.582031 C 422.472656 325.703125 428.589844 328.925781 434.792969 332.910156 C 534.351562 397.550781 634.632812 461.027344 734.878906 524.585938 C 742.367188 529.375 749.773438 534.285156 759.636719 537.789062 Z M 759.636719 537.789062 " fill-opacity="1" fill-rule="nonzero"/><path fill="#4d4d4f" d="M 373.074219 320.996094 C 371.625 321.15625 370.214844 321.398438 368.808594 321.71875 C 368.96875 320.953125 369.050781 320.148438 369.050781 319.304688 C 369.050781 317.089844 368.765625 314.875 368.605469 312.664062 C 368.445312 310.207031 368.242188 307.753906 368.082031 305.539062 C 380.804688 298.332031 413.65625 298.574219 423.035156 307.632812 C 422.996094 310.691406 423.519531 313.992188 422.230469 316.808594 C 411.320312 316.726562 400.773438 316.648438 390.226562 316.527344 C 385.152344 316.488281 380.320312 317.734375 375.53125 319.222656 C 374.523438 319.546875 373.476562 319.988281 373.074219 320.996094 Z M 387.527344 9.410156 C 387.890625 14.402344 388.089844 19.390625 388.089844 24.421875 C 387.890625 103.113281 387.609375 181.804688 387.328125 260.539062 C 387.285156 268.585938 386.882812 276.679688 386.683594 284.726562 C 386.640625 286.054688 386.804688 287.425781 386.84375 288.832031 C 389.742188 290.484375 392.558594 289.558594 395.21875 289.71875 C 397.953125 289.839844 400.734375 289.757812 403.914062 289.757812 C 404.195312 287.90625 404.636719 286.378906 404.636719 284.808594 C 404.355469 258.402344 403.914062 231.957031 403.710938 205.554688 C 403.46875 177.457031 403.308594 149.363281 403.230469 121.308594 C 403.148438 89.871094 403.109375 58.476562 403.230469 27.039062 C 403.269531 20.117188 404.035156 13.195312 404.558594 6.230469 C 404.636719 5.144531 404.878906 3.976562 405.320312 3.011719 C 405.441406 2.726562 405.605469 2.488281 405.726562 2.246094 L 385.878906 2.246094 C 385.996094 2.445312 386.078125 2.6875 386.160156 2.929688 C 386.804688 5.023438 387.367188 7.238281 387.527344 9.410156 Z M 387.527344 9.410156 " fill-opacity="1" fill-rule="nonzero"/><g clip-path="url(#dde29f57b1)"><path fill="#fff3c8" d="M 744.015625 536.621094 C 748.003906 537.949219 751.949219 539.398438 755.8125 541.046875 C 755.773438 541.089844 755.730469 541.128906 755.652344 541.128906 C 752.027344 543.179688 748.363281 545.152344 744.621094 546.964844 C 732.101562 553.042969 718.933594 557.511719 705.691406 561.65625 C 662.894531 575.019531 619.054688 583.472656 574.769531 589.871094 C 553.59375 592.933594 532.378906 595.628906 511 597.117188 C 491.878906 598.488281 472.796875 600.339844 453.632812 601.382812 C 434.75 602.390625 415.828125 602.753906 396.949219 603.15625 C 365.789062 603.878906 334.667969 602.191406 303.507812 601.503906 C 302.097656 601.464844 300.730469 601.382812 299.363281 601.265625 C 281.648438 599.816406 263.894531 598.605469 246.179688 596.875 C 230.15625 595.304688 214.132812 593.574219 198.191406 591.28125 C 177.578125 588.34375 157.089844 584.558594 136.757812 580.089844 C 108.777344 573.933594 81.28125 566.203125 54.832031 555.054688 C 51.25 553.566406 47.746094 551.875 44.203125 550.226562 C 43.199219 549.742188 42.230469 549.21875 42.554688 547.488281 C 43.359375 547.125 44.324219 546.644531 45.332031 546.320312 C 55.636719 543.019531 65.863281 539.398438 76.289062 536.582031 C 121.058594 524.425781 166.027344 513.316406 211.800781 505.464844 C 226.855469 502.890625 241.953125 500.476562 257.050781 498.339844 C 269.972656 496.488281 282.9375 495.039062 295.941406 493.59375 C 299.765625 493.148438 303.628906 492.503906 307.292969 493.429688 C 307.695312 494.195312 308.097656 494.636719 308.21875 495.121094 C 308.703125 497.296875 309.023438 499.507812 309.464844 501.683594 C 314.5 525.589844 327.863281 542.253906 351.457031 550.183594 C 371.546875 556.945312 391.835938 556.988281 412.285156 552.199219 C 426.539062 548.855469 439.621094 542.898438 450.894531 533.441406 C 462.167969 523.980469 469.089844 511.867188 472.230469 497.578125 C 472.796875 494.921875 472.917969 492.183594 473.199219 489.847656 C 473.882812 489.40625 474.125 489.125 474.324219 489.125 C 489.582031 490.050781 504.882812 490.613281 520.097656 492.023438 C 537.53125 493.632812 554.921875 495.683594 572.234375 498.140625 C 590.390625 500.714844 608.507812 503.574219 626.460938 507.117188 C 658.105469 513.394531 688.984375 522.410156 719.175781 533.921875 C 725.136719 536.175781 731.335938 537.867188 737.453125 539.597656 C 740.835938 540.523438 743.414062 539.519531 743.894531 537.507812 C 743.976562 537.183594 744.015625 536.902344 744.015625 536.621094 Z M 256.527344 769.996094 C 256.246094 771.324219 256.285156 772.734375 256.246094 774.101562 C 256.203125 774.625 256.164062 775.308594 256.445312 775.710938 C 256.890625 776.316406 257.492188 777.121094 258.136719 777.203125 C 258.78125 777.28125 259.988281 776.800781 260.191406 776.277344 C 264.09375 766.292969 267.757812 756.230469 268.523438 745.402344 C 268.5625 745.082031 267.800781 744.679688 266.511719 743.429688 C 261.761719 752.207031 258.296875 760.78125 256.527344 769.996094 Z M 785 644.089844 C 790.996094 652.421875 796.917969 660.835938 804.808594 667.597656 C 805.410156 668.121094 806.214844 668.644531 806.941406 668.765625 C 807.664062 668.886719 808.511719 668.5625 809.15625 668.160156 C 809.515625 667.960938 809.796875 667.15625 809.71875 666.710938 C 809.476562 665.664062 809.195312 664.539062 808.632812 663.652344 C 805.449219 658.421875 791.761719 645.539062 785.441406 641.796875 C 785.160156 643.125 784.796875 643.808594 785 644.089844 Z M 30.636719 685.027344 C 24.960938 691.585938 21.09375 699.195312 17.996094 707.246094 C 17.792969 707.769531 17.59375 708.332031 17.632812 708.855469 C 17.753906 709.621094 17.957031 710.90625 18.359375 711.027344 C 19.242188 711.269531 20.773438 711.269531 21.214844 710.707031 C 25.847656 704.832031 29.792969 698.511719 32.691406 691.585938 C 33.453125 689.816406 33.855469 687.882812 34.21875 686.03125 C 34.339844 685.347656 33.816406 684.542969 33.453125 683.335938 C 32.328125 683.980469 31.242188 684.300781 30.636719 685.027344 Z M 537.972656 761.664062 C 537.972656 764.722656 537.894531 767.78125 538.015625 770.800781 C 538.054688 771.890625 538.296875 773.015625 538.820312 773.941406 C 539.140625 774.546875 540.027344 775.1875 540.710938 775.269531 C 541.4375 775.351562 542.5625 775.027344 542.886719 774.464844 C 543.570312 773.335938 544.253906 771.96875 544.253906 770.679688 C 544.335938 765.410156 544.253906 760.136719 544.050781 754.863281 C 543.972656 753.210938 543.410156 751.601562 543.007812 749.992188 C 542.644531 748.582031 541.917969 747.253906 540.347656 747.175781 C 538.617188 747.09375 538.054688 748.625 538.015625 749.992188 C 537.894531 753.894531 537.972656 757.800781 537.972656 761.664062 Z M 18.4375 674.039062 C 10.992188 679.191406 6.121094 686.71875 0.765625 693.761719 C -0.0390625 694.808594 0.5625 697.183594 1.652344 697.382812 C 2.617188 697.542969 4.066406 697.464844 4.671875 696.859375 C 10.105469 691.304688 15.539062 685.75 19.605469 679.027344 C 20.167969 678.101562 20.691406 677.058594 20.894531 676.011719 C 21.015625 675.324219 20.492188 674.5625 20.25 673.835938 C 19.484375 673.878906 18.839844 673.757812 18.4375 674.039062 Z M 562.167969 747.9375 C 560.679688 755.667969 562.210938 763.234375 563.699219 770.761719 C 563.898438 771.769531 564.585938 772.8125 565.308594 773.578125 C 565.792969 774.101562 566.757812 774.585938 567.402344 774.464844 C 568.085938 774.34375 568.730469 773.539062 569.175781 772.894531 C 569.457031 772.492188 569.535156 771.847656 569.496094 771.324219 C 569.375 763.273438 567.804688 755.507812 564.746094 748.058594 C 564.585938 747.65625 563.898438 747.457031 563.054688 746.894531 C 562.492188 747.578125 562.210938 747.738281 562.167969 747.9375 Z M 278.105469 778.652344 C 278.265625 780.101562 279.03125 781.46875 280.601562 781.347656 C 281.445312 781.265625 282.773438 780.300781 282.976562 779.535156 C 284.949219 771.527344 286.679688 763.4375 284.464844 755.183594 C 284.304688 754.539062 283.539062 754.058594 282.492188 752.808594 C 279.875 759.046875 277.5 773.539062 278.105469 778.652344 Z M 787.617188 679.433594 C 787.816406 679.59375 788.058594 679.753906 788.300781 679.914062 C 789.429688 680.71875 791.519531 680.597656 792.003906 679.472656 C 792.367188 678.625 792.367188 677.296875 791.925781 676.492188 C 790.996094 674.84375 789.667969 673.355469 788.5 671.824219 C 784.554688 666.832031 780.652344 661.84375 776.664062 656.890625 C 775.820312 655.84375 774.8125 656.085938 774.007812 657.171875 C 776.828125 666.429688 781.617188 674.28125 787.617188 679.433594 Z M 787.617188 679.433594 " fill-opacity="1" fill-rule="nonzero"/></g><path fill="#ffef8d" d="M 460.839844 488.519531 C 458.585938 509.8125 447.351562 523.699219 429.597656 532.757812 C 424.6875 535.25 419.453125 537.34375 414.179688 538.914062 C 394.292969 544.914062 374.363281 545.394531 354.394531 538.671875 C 339.578125 533.683594 329.074219 524.101562 322.671875 509.933594 C 320.175781 504.378906 317.640625 498.824219 316.472656 492.382812 C 317.558594 492.0625 318.566406 491.621094 319.570312 491.539062 C 364.742188 487.472656 410.03125 487.394531 455.363281 488.15625 C 457.015625 488.199219 458.625 488.359375 460.839844 488.519531 Z M 460.839844 488.519531 " fill-opacity="1" fill-rule="nonzero"/></svg>